<svg width="1400" height="1400" viewBox="0 0 1400 1400" fill="none" xmlns="http://www.w3.org/2000/svg">
<mask id="mask0_614_4050" style="mask-type:alpha" maskUnits="userSpaceOnUse" x="399" y="379" width="632" height="651">
<path d="M1016.75 753.25L851.091 588.834C853.12 583.296 853.522 583.174 855.246 577.708C877.727 506.071 872.089 441.98 833.5 406.619C797.893 373.946 741.258 372.298 679.542 396.099C719.998 387.98 756.09 394.163 780.978 416.996C808.918 442.626 817.914 484.672 810.031 533.117C800.963 589.304 769.252 654.076 718.238 711.768C666.146 770.644 604.825 809.93 550.058 824.358C504.861 836.169 464.19 831.079 436.914 806.077C413.535 784.641 403.497 751.664 405.401 713.095C391.79 774.067 400.247 827.261 434.113 858.321C470.69 891.872 529.498 892.696 593.171 866.852C599.079 864.451 593.581 866.818 599.56 863.969L753.651 1017.77C770.387 1034.29 798.408 1034 814.946 1017.33L1018.23 814.436C1034.78 797.768 1033.49 769.774 1016.79 753.25H1016.75ZM896.905 753.277C890.099 752.721 884.766 747.13 884.587 740.301C884.353 732.308 891.141 725.891 899.131 726.555L902.31 726.841C899.167 724.547 894.103 721.536 886.939 719.135C888.896 717.683 890.71 716.07 892.451 714.349C894.157 712.647 895.755 710.836 897.192 708.901C899.58 716.034 902.597 721.106 904.913 724.242L904.626 721.07C903.961 713.113 910.372 706.32 918.398 706.553C925.24 706.732 930.86 712.037 931.399 718.848L934.469 756.324L896.905 753.259V753.277ZM983.832 803.675C976.775 810.701 968.73 812.457 961.835 810.253L963.595 800.826C968.497 802.026 972.95 800.682 976.937 796.685C980.492 793.137 980.528 789.893 978.678 788.047C977.385 786.756 975.733 786.595 973.884 787.043C972.789 787.24 970.777 788.047 969.592 788.746C968.389 789.248 965.75 790.592 964.349 791.183C956.897 794.624 951.061 794.768 945.8 789.534C942.801 786.541 941.508 783.046 942.011 779.05C942.46 775.017 944.31 771.361 947.56 768.117C952.606 763.081 958.352 761.127 964.852 762.238L963.595 771.271C960.399 770.877 957.4 772.06 954.652 774.82C952.103 777.365 951.654 780.215 953.306 781.863C954.455 783.01 955.461 783.405 957.148 783.01C957.992 782.76 958.8 782.455 959.447 782.204L962.805 780.555C964.349 779.802 965.696 779.157 966.899 778.655C975.644 774.712 981.138 775.107 986.148 780.107C992.595 786.541 992.397 795.126 983.85 803.657L983.832 803.675Z" fill="black"/>
</mask>
<g mask="url(#mask0_614_4050)">
<path d="M851.657 587.335C805.499 707.52 701.141 815.687 597.787 864.762L758.839 1028.01L778.908 1032.52H793.959L807.004 1028.01L1026.76 815.687L1033.28 801.665V783.137L1026.76 762.104L851.657 587.335Z" fill="url(#paint0_linear_614_4050)"/>
</g>
<mask id="mask1_614_4050" style="mask-type:alpha" maskUnits="userSpaceOnUse" x="399" y="379" width="632" height="651">
<path d="M1016.77 753.25C1016.76 753.25 1016.75 753.245 1016.74 753.237L852.002 589.737C851.447 589.187 851.263 588.36 851.539 587.628C853.191 583.244 853.657 582.747 855.246 577.708C877.727 506.071 872.089 441.98 833.5 406.619C802.216 377.913 754.7 373.155 701.767 388.565C699.415 389.25 700.346 393.143 702.791 392.99C733.724 391.046 760.971 398.641 780.978 416.996C808.918 442.626 817.914 484.672 810.031 533.117C800.963 589.304 769.252 654.076 718.238 711.768C666.146 770.644 604.825 809.93 550.058 824.358C504.861 836.169 464.19 831.079 436.914 806.077C418.424 789.124 408.279 764.953 405.786 736.506C405.572 734.066 401.584 733.724 401.258 736.15C394.378 787.353 404.592 831.247 434.113 858.321C470.69 891.872 529.498 892.696 593.171 866.852C598.582 864.652 594.425 866.454 598.282 864.583C599.043 864.213 599.96 864.368 600.559 864.966L753.651 1017.77C770.387 1034.29 798.408 1034 814.946 1017.33L1018.23 814.436C1034.78 797.772 1033.49 769.788 1016.8 753.262C1016.8 753.254 1016.78 753.25 1016.77 753.25ZM896.905 753.268C896.905 753.273 896.9 753.277 896.896 753.276C890.094 752.716 884.766 747.127 884.587 740.301C884.353 732.308 891.141 725.891 899.131 726.555C900.024 726.635 900.426 725.532 899.667 725.055C897.296 723.568 894.265 721.949 890.539 720.456C889.038 719.855 888.702 717.788 889.916 716.72C890.782 715.958 891.625 715.166 892.451 714.349C893.252 713.55 894.03 712.727 894.777 711.878C895.846 710.665 897.912 711 898.514 712.501C900.004 716.215 901.625 719.244 903.12 721.612C903.601 722.374 904.707 721.968 904.626 721.07C903.961 713.113 910.372 706.32 918.398 706.553C925.24 706.732 930.86 712.037 931.399 718.848L934.277 753.976C934.378 755.206 933.351 756.233 932.121 756.132L896.914 753.26C896.909 753.259 896.905 753.263 896.905 753.268ZM983.832 803.675C977.349 810.13 970.032 812.137 963.538 810.711C962.554 810.495 961.974 809.509 962.159 808.518L963.207 802.904C963.418 801.775 964.535 801.073 965.677 801.185C969.765 801.586 973.522 800.109 976.937 796.685C980.492 793.137 980.528 789.893 978.678 788.047C977.385 786.756 975.733 786.595 973.884 787.043C972.789 787.24 970.777 788.047 969.592 788.746C968.389 789.248 965.75 790.592 964.349 791.183C956.897 794.624 951.061 794.768 945.8 789.534C942.801 786.541 941.508 783.046 942.011 779.05C942.46 775.017 944.31 771.361 947.56 768.117C952.102 763.583 957.212 761.548 962.928 761.997C964.005 762.082 964.734 763.089 964.585 764.159L963.866 769.321C963.716 770.403 962.718 771.138 961.63 771.23C959.164 771.436 956.829 772.633 954.652 774.82C952.103 777.365 951.654 780.215 953.306 781.863C954.455 783.01 955.461 783.405 957.148 783.01C957.992 782.76 958.8 782.455 959.447 782.204L962.805 780.555C964.349 779.802 965.696 779.157 966.899 778.655C975.644 774.712 981.138 775.107 986.148 780.107C992.595 786.541 992.397 795.126 983.85 803.657L983.832 803.675Z" fill="black"/>
</mask>
<g mask="url(#mask1_614_4050)">
<path d="M393.088 799.662C405.631 844.398 460.619 921.65 580.229 872.775C586.75 870.111 599.796 863.761 602.305 862.76C720.209 806.673 809.515 698.507 851.157 588.838C852.077 586.416 853.916 582.56 855.141 579.164C859.991 568.815 869.32 548.275 869.721 548.275C870.122 548.275 875.909 516.226 878.752 500.201L873.735 453.129L842.628 404.554L809.013 376.01L674.552 381.017V401.549C686.594 402.05 711.579 403.352 715.192 404.554C719.707 406.056 770.381 417.073 772.889 420.078C774.896 422.481 792.456 451.793 800.985 466.149V548.275L766.869 628.899L640.937 772.621L528.05 823.699L461.823 813.684C451.12 805.839 429.111 789.447 426.703 786.642C424.295 783.838 417.003 757.764 413.658 745.078L407.638 711.026H399.109L393.088 799.662Z" fill="url(#paint1_linear_614_4050)"/>
</g>
<mask id="mask2_614_4050" style="mask-type:alpha" maskUnits="userSpaceOnUse" x="370" y="370" width="422" height="428">
<path d="M769.864 444.22C769.859 444.22 769.853 444.218 769.849 444.214C750.858 424.128 721.656 417.449 687.683 422.577C687.055 422.671 686.414 422.468 685.963 422.022L648.254 384.789C628.107 364.913 595.48 365.092 575.531 385.201L384.851 577.689C375.191 587.457 369.911 600.361 370.001 614.054C370.091 627.783 375.514 640.633 385.264 650.276L425.211 689.689C425.666 690.139 425.878 690.782 425.786 691.415C420.864 725.47 426.908 754.922 445.4 774.515C466.217 796.556 499.345 802.456 537.563 794.368C539.957 793.861 539.246 789.752 536.8 789.662C515.962 788.904 498.096 782.072 485.317 768.511C474.274 756.843 468.115 741.34 466.445 723.453C465.881 717.945 465.773 712.162 466.104 706.225C466.136 705.648 465.921 705.082 465.51 704.676L430.191 669.811L397.708 637.748C391.28 631.421 387.76 622.998 387.688 614C387.616 605.003 391.1 596.544 397.439 590.128L588.118 397.604C601.19 384.413 622.613 384.287 635.828 397.335L666.103 427.194L701.753 462.372C702.16 462.773 702.719 462.981 703.29 462.947C705.151 462.837 706.98 462.77 708.821 462.77C731.59 462.645 751.091 469.509 764.774 484.026C776.401 496.322 782.61 512.856 783.891 531.998C784.055 534.448 788.236 535.025 788.656 532.606C794.956 496.329 789.327 464.842 769.88 444.227C769.876 444.223 769.87 444.22 769.864 444.22Z" fill="black"/>
<path d="M434.295 673.829C433.499 673.064 432.232 673.088 431.465 673.883L421.978 683.716C421.217 684.505 421.234 685.759 422.017 686.527L458.159 721.96C458.312 722.109 458.487 722.233 458.679 722.328L500.399 742.781C502.45 743.786 504.316 741.13 502.67 739.548L434.295 673.829Z" fill="black"/>
<path d="M663.842 424.966C663.054 424.191 663.045 422.926 663.821 422.14L673.41 412.425C674.18 411.645 675.436 411.629 676.226 412.389L709.824 444.727C709.99 444.887 710.127 445.073 710.229 445.279L729.457 484.028C730.459 486.048 727.867 487.92 726.258 486.339L663.842 424.966Z" fill="black"/>
</mask>
<g mask="url(#mask2_614_4050)">
<rect width="312.554" height="527.485" transform="matrix(0.710189 0.704011 -0.705352 0.708857 643.729 294.181)" fill="url(#paint2_linear_614_4050)"/>
</g>
<path d="M459.949 635.472C458.531 636.923 457.058 638.232 455.532 639.271L448.296 632.246C449.265 631.672 450.378 630.722 451.653 629.432C455.101 625.901 454.024 623.141 450.702 619.915L426.389 596.311L434.182 588.317L458.028 611.473C461.098 614.448 462.768 616.277 464.402 619.592C466.827 624.18 465.875 629.002 459.949 635.49V635.472Z" fill="#AD001D"/>
<path d="M479.758 680.332C472.18 680.117 466.327 674.184 466.219 666.567C466.075 657.66 473.76 650.096 482.649 650.365L486.186 650.491L485.917 646.978C485.289 638.124 492.561 630.166 501.485 629.951C509.117 629.754 515.276 635.346 515.797 642.909L518.418 681.425L479.758 680.332Z" fill="#AD001D"/>
<defs>
<linearGradient id="paint0_linear_614_4050" x1="852.159" y1="558.791" x2="799.668" y2="797.2" gradientUnits="userSpaceOnUse">
<stop stop-color="#C90021"/>
<stop offset="1" stop-color="#670414"/>
</linearGradient>
<linearGradient id="paint1_linear_614_4050" x1="635.92" y1="376.01" x2="498.433" y2="888.93" gradientUnits="userSpaceOnUse">
<stop stop-color="#FF002A"/>
<stop offset="1" stop-color="#56010E"/>
</linearGradient>
<linearGradient id="paint2_linear_614_4050" x1="73.8122" y1="59.7909" x2="256.77" y2="453.132" gradientUnits="userSpaceOnUse">
<stop stop-color="#FF002A"/>
<stop offset="1" stop-color="#51000D"/>
</linearGradient>
</defs>
</svg>
