<svg width="1400" height="1400" viewBox="0 0 1400 1400" fill="none" xmlns="http://www.w3.org/2000/svg">
<mask id="mask0_614_4156" style="mask-type:alpha" maskUnits="userSpaceOnUse" x="399" y="379" width="631" height="651">
<path d="M1016.75 753.25L851.09 588.834C853.119 583.296 853.521 583.174 855.245 577.708C877.726 506.071 872.088 441.98 833.499 406.619C797.892 373.946 741.257 372.298 679.541 396.099C719.997 387.98 756.089 394.163 780.977 416.996C808.917 442.626 817.913 484.672 810.03 533.117C800.962 589.304 769.251 654.076 718.237 711.768C666.145 770.644 604.824 809.93 550.057 824.358C504.86 836.169 464.189 831.079 436.913 806.077C413.534 784.641 403.496 751.664 405.4 713.095C391.789 774.067 400.246 827.261 434.112 858.321C470.689 891.872 529.497 892.696 593.17 866.852C599.078 864.451 593.58 866.818 599.559 863.969L753.65 1017.77C770.386 1034.29 798.407 1034 814.945 1017.33L1018.23 814.436C1034.78 797.768 1033.49 769.774 1016.79 753.25H1016.75ZM896.904 753.277C890.098 752.721 884.765 747.13 884.586 740.301C884.352 732.308 891.14 725.891 899.13 726.555L902.309 726.841C899.166 724.547 894.102 721.536 886.938 719.135C888.895 717.683 890.709 716.07 892.451 714.349C894.156 712.647 895.754 710.836 897.191 708.901C899.579 716.034 902.596 721.106 904.912 724.242L904.625 721.07C903.961 713.113 910.371 706.32 918.398 706.553C925.239 706.732 930.859 712.037 931.398 718.848L934.468 756.324L896.904 753.259V753.277ZM983.831 803.675C976.774 810.701 968.729 812.457 961.834 810.253L963.594 800.826C968.496 802.026 972.949 800.682 976.936 796.685C980.491 793.137 980.527 789.893 978.677 788.047C977.384 786.756 975.732 786.595 973.883 787.043C972.788 787.24 970.776 788.047 969.591 788.746C968.388 789.248 965.749 790.592 964.348 791.183C956.896 794.624 951.06 794.768 945.799 789.534C942.8 786.541 941.507 783.046 942.01 779.05C942.459 775.017 944.309 771.361 947.559 768.117C952.605 763.081 958.351 761.127 964.851 762.238L963.594 771.271C960.398 770.877 957.399 772.06 954.651 774.82C952.102 777.365 951.653 780.215 953.305 781.863C954.454 783.01 955.46 783.405 957.148 783.01C957.991 782.76 958.799 782.455 959.446 782.204L962.804 780.555C964.348 779.802 965.695 779.157 966.898 778.655C975.643 774.712 981.13 770.361 983.831 765.05C986.349 760.036 986.028 755.928 982.848 752.757C978.597 748.388 972.997 748.267 966.071 750.888L960.398 753.277H958.351L963.594 744.653C968.838 736.03 971.589 728.724 971.589 722.757C971.589 718.605 969.54 715.402 965.494 713.165C961.431 710.909 955.001 710.014 945.799 712.234L947.559 703.209C953.524 706.179 959.976 707.717 966.855 707.717C975.735 707.717 982.921 705.472 988.405 701.094C993.822 696.772 996.89 691.134 997.298 684.399C997.706 677.644 995.658 671.636 991.504 666.205C987.244 660.729 981.235 657.545 973.416 656.608C965.579 655.67 956.795 657.066 947.06 660.824L948.566 651.781C956.271 649.233 963.562 647.975 970.328 647.975C983.861 647.975 994.508 651.856 1002.36 659.56C1010.18 667.282 1014.09 677.665 1014.09 690.825C1014.09 703.985 1010.16 714.434 1002.36 722.155C994.855 729.59 984.705 735.169 971.907 738.893V738.911C974.259 739.816 976.21 740.972 977.756 742.378C981.129 745.409 982.893 749.43 982.893 754.448C982.893 759.82 980.99 764.256 977.204 767.797C973.213 771.52 967.59 774.214 960.398 775.867L966.071 778.256C971.866 776.586 976.359 774.071 979.547 770.726C983.015 767.072 984.954 762.909 984.954 758.235H984.972V758.217L983.831 803.675Z"/>
</mask>
<g mask="url(#mask0_614_4156)">
<path d="M851.656 587.335C805.498 707.52 701.14 815.687 597.786 864.762L758.838 1028.01L778.907 1032.52H793.958L807.003 1028.01L1026.76 815.687L1033.28 801.665V783.137L1026.76 762.104L851.656 587.335Z" fill="#FF002A"/>
</g>
<mask id="mask1_614_4156" style="mask-type:alpha" maskUnits="userSpaceOnUse" x="399" y="379" width="631" height="651">
<path d="M1016.77 753.25C1016.76 753.25 1016.75 753.245 1016.74 753.237L852.001 589.737C851.446 589.187 851.262 588.36 851.538 587.628C853.19 583.244 853.656 582.747 855.245 577.708C877.726 506.071 872.088 441.98 833.499 406.619C802.215 377.913 754.699 373.155 701.766 388.565C699.414 389.25 700.345 393.143 702.79 392.99C733.723 391.046 760.97 398.641 780.977 416.996C808.917 442.626 817.913 484.672 810.03 533.117C800.962 589.304 769.251 654.076 718.237 711.768C666.145 770.644 604.824 809.93 550.057 824.358C504.86 836.169 464.189 831.079 436.913 806.077C418.423 789.124 408.278 764.953 405.785 736.506C405.571 734.066 401.583 733.724 401.257 736.15C394.377 787.353 404.591 831.247 434.112 858.321C470.689 891.872 529.497 892.696 593.17 866.852C598.581 864.652 594.424 866.454 598.281 864.583C599.042 864.213 599.959 864.368 600.558 864.966L753.65 1017.77C770.386 1034.29 798.407 1034 814.945 1017.33L1018.23 814.436C1034.78 797.772 1033.49 769.788 1016.8 753.262C1016.79 753.254 1016.78 753.25 1016.77 753.25ZM896.904 753.268C896.904 753.273 896.899 753.277 896.895 753.276C890.093 752.716 884.765 747.127 884.586 740.301C884.352 732.308 891.14 725.891 899.13 726.555C900.023 726.635 900.426 725.532 899.666 725.055C897.295 723.568 894.264 721.949 890.538 720.456C889.037 719.855 888.701 717.788 889.915 716.72C890.781 715.958 891.624 715.166 892.451 714.349C893.251 713.55 894.029 712.727 894.776 711.878C895.845 710.665 897.911 711 898.513 712.501C900.003 716.215 901.624 719.244 903.119 721.612C903.6 722.374 904.706 721.968 904.625 721.07C903.961 713.113 910.371 706.32 918.398 706.553C925.239 706.732 930.859 712.037 931.398 718.848L934.276 753.976C934.377 755.206 933.35 756.233 932.12 756.132L896.913 753.26C896.908 753.259 896.904 753.263 896.904 753.268ZM983.831 803.675C977.348 810.13 970.031 812.137 963.537 810.711C962.553 810.495 961.973 809.509 962.158 808.518L963.206 802.904C963.417 801.775 964.534 801.073 965.676 801.185C969.764 801.586 973.521 800.109 976.936 796.685C980.491 793.137 980.527 789.893 978.677 788.047C977.384 786.756 975.732 786.595 973.883 787.043C972.788 787.24 970.776 788.047 969.591 788.746C968.388 789.248 965.749 790.592 964.348 791.183C956.896 794.624 951.06 794.768 945.799 789.534C942.8 786.541 941.507 783.046 942.01 779.05C942.459 775.017 944.309 771.361 947.559 768.117C952.605 763.081 958.351 761.127 964.851 762.238L963.594 771.271C960.398 770.877 957.399 772.06 954.651 774.82C952.102 777.365 951.653 780.215 953.305 781.863C954.454 783.01 955.46 783.405 957.148 783.01C957.991 782.76 958.799 782.455 959.446 782.204L962.804 780.555C964.348 779.802 965.695 779.157 966.898 778.655C975.643 774.712 981.13 770.361 983.831 765.05C986.349 760.036 986.028 755.928 982.848 752.757C978.597 748.388 972.997 748.267 966.071 750.888L960.398 753.277H958.351L963.594 744.653C968.838 736.03 971.589 728.724 971.589 722.757C971.589 718.605 969.54 715.402 965.494 713.165C961.431 710.909 955.001 710.014 945.799 712.234L947.559 703.209C953.524 706.179 959.976 707.717 966.855 707.717C975.735 707.717 982.921 705.472 988.405 701.094C993.822 696.772 996.89 691.134 997.298 684.399C997.706 677.644 995.658 671.636 991.504 666.205C987.244 660.729 981.235 657.545 973.416 656.608C965.579 655.67 956.795 657.066 947.06 660.824L948.566 651.781C956.271 649.233 963.562 647.975 970.328 647.975C983.861 647.975 994.508 651.856 1002.36 659.56C1010.18 667.282 1014.09 677.665 1014.09 690.825C1014.09 703.985 1010.16 714.434 1002.36 722.155C994.855 729.59 984.705 735.169 971.907 738.893V738.911C974.259 739.816 976.21 740.972 977.756 742.378C981.129 745.409 982.893 749.43 982.893 754.448C982.893 759.82 980.99 764.256 977.204 767.797C973.213 771.52 967.59 774.214 960.398 775.867L966.071 778.256C971.866 776.586 976.359 774.071 979.547 770.726C983.015 767.072 984.954 762.909 984.954 758.235H984.972V758.217L983.831 803.675Z"/>
</mask>
<g mask="url(#mask1_614_4156)">
<path d="M393.087 799.662C405.63 844.398 460.618 921.65 580.228 872.775C586.749 870.111 599.795 863.761 602.304 862.76C720.208 806.673 809.514 698.507 851.156 588.838C852.076 586.416 853.915 582.56 855.14 579.164C859.99 568.815 869.319 548.275 869.72 548.275C870.121 548.275 875.908 516.226 878.751 500.201L873.734 453.129L842.627 404.554L809.012 376.01L674.551 381.017V401.549C686.593 402.05 711.578 403.352 715.191 404.554C719.706 406.056 770.38 417.073 772.888 420.078C774.895 422.481 792.455 451.793 800.984 466.149V548.275L766.868 628.899L640.936 772.621L528.049 823.699L461.822 813.684C451.119 805.839 429.11 789.447 426.702 786.642C424.294 783.838 417.002 757.764 413.657 745.078L407.637 711.026H399.108L393.087 799.662Z" fill="#FF002A"/>
</g>
<mask id="mask2_614_4156" style="mask-type:alpha" maskUnits="userSpaceOnUse" x="369" y="370" width="423" height="428">
<path d="M769.863 444.22C769.858 444.22 769.852 444.218 769.848 444.214C750.857 424.128 721.655 417.449 687.682 422.577C687.054 422.671 686.414 422.468 685.962 422.022L648.253 384.789C628.106 364.913 595.479 365.092 575.53 385.201L384.85 577.689C375.19 587.457 369.91 600.361 370 614.054C370.09 627.783 375.513 640.633 385.263 650.276L425.21 689.689C425.665 690.139 425.877 690.782 425.785 691.415C420.863 725.47 426.907 754.922 445.399 774.515C466.216 796.556 499.344 802.456 537.562 794.368C539.956 793.861 539.245 789.752 536.799 789.662C515.961 788.904 498.095 782.072 485.316 768.511C474.273 756.843 468.114 741.34 466.444 723.453C465.881 717.945 465.772 712.162 466.103 706.225C466.135 705.648 465.92 705.082 465.509 704.676L430.19 669.811L397.707 637.748C391.279 631.421 387.759 622.998 387.687 614C387.615 605.003 391.099 596.544 397.438 590.128L588.117 397.604C601.189 384.413 622.612 384.287 635.828 397.335L666.102 427.194L701.752 462.372C702.159 462.773 702.718 462.981 703.289 462.947C705.15 462.837 706.979 462.77 708.82 462.77C731.589 462.645 751.09 469.509 764.773 484.026C776.4 496.322 782.609 512.856 783.89 531.998C784.054 534.448 788.235 535.025 788.655 532.606C794.955 496.329 789.326 464.842 769.879 444.227C769.875 444.223 769.869 444.22 769.863 444.22Z" fill="black"/>
<path d="M434.294 673.829C433.498 673.064 432.231 673.088 431.464 673.883L421.977 683.716C421.216 684.505 421.233 685.759 422.016 686.527L458.158 721.96C458.311 722.109 458.486 722.233 458.678 722.328L500.398 742.781C502.449 743.786 504.315 741.13 502.669 739.548L434.294 673.829Z" fill="black"/>
<path d="M663.841 424.966C663.054 424.191 663.044 422.926 663.82 422.14L673.409 412.425C674.179 411.645 675.435 411.629 676.225 412.389L709.823 444.727C709.989 444.887 710.126 445.073 710.228 445.279L729.456 484.028C730.458 486.048 727.866 487.92 726.257 486.339L663.841 424.966Z" fill="black"/>
</mask>
<g mask="url(#mask2_614_4156)">
<rect width="312.554" height="527.485" transform="matrix(0.710189 0.704011 -0.705352 0.708857 643.728 294.181)" fill="#FF002A"/>
</g>
<path d="M459.948 635.472C458.53 636.923 457.057 638.232 455.531 639.271L448.295 632.246C449.264 631.672 450.377 630.722 451.652 629.432C455.1 625.901 454.023 623.141 450.701 619.915L426.388 596.311L434.181 588.317L458.027 611.473C461.098 614.448 462.767 616.277 464.401 619.592C466.826 624.18 465.874 629.002 459.948 635.49V635.472Z" fill="#FF002A"/>
<path d="M479.757 680.332C472.179 680.117 466.326 674.184 466.218 666.567C466.074 657.66 473.76 650.096 482.648 650.365L486.185 650.491L485.916 646.978C485.288 638.124 492.56 630.166 501.484 629.951C509.116 629.754 515.275 635.346 515.796 642.909L518.417 681.425L479.757 680.332Z" fill="#FF002A"/>
</svg>
